<svg width="18" height="18" viewBox="0 0 18 18" xmlns="http://www.w3.org/2000/svg">
  <g fill="none" fill-rule="evenodd">
    <path d="M17.64 9.2045c0-.6385-.0573-1.2518-.1636-1.8409H9v3.4818h4.8445c-.2091 1.125-.8436 2.0781-1.7968 2.7163v2.2582h2.9082c1.7027-1.5682 2.6841-3.8773 2.6841-6.6154z" fill="#4285F4"/>
    <path d="M9 18c2.43 0 4.4673-.8059 5.9563-2.1805l-2.9082-2.2582c-.8063.54-1.8377.8614-3.0481.8614-2.3441 0-4.3291-1.5832-5.0377-3.7109H.9563v2.3323C2.4382 15.9832 5.4818 18 9 18z" fill="#34A853"/>
    <path d="M3.9623 10.7118C3.7732 10.1718 3.6668 9.5932 3.6668 9s.1064-1.1718.2955-1.7118V4.9568H.9564C.3477 6.1732 0 7.5436 0 9s.3477 2.8268.9564 4.0432l3.0059-2.3314z" fill="#FBBC05"/>
    <path d="M9 3.5418c1.3213 0 2.5086.4545 3.4431 1.345l2.5827-2.5828C13.4614.8468 11.4241 0 9 0 5.4818 0 2.4382 2.0168.9563 4.9568l3.0059 2.3314C4.6709 5.125 6.6559 3.5418 9 3.5418z" fill="#EA4335"/>
  </g>
</svg>

